<svg width="447.4249267578125px" height="134px" xmlns="http://www.w3.org/2000/svg" viewBox="26.28753662109375 8 447.4249267578125 134" style="background: rgba(0, 0, 0, 0);" preserveAspectRatio="xMidYMid"><defs><linearGradient id="editing-sticker-gradient" x1="0.5" y1="0.2" x2="0.5" y2="0.8"><stop offset="0" stop-color="#fd9"></stop><stop offset="1" stop-color="#9df"></stop></linearGradient><filter id="editing-sticker" x="-100%" y="-100%" width="300%" height="300%"><feMorphology operator="erode" radius="1" in="SourceAlpha" result="alpha-erode"></feMorphology><feConvolveMatrix order="3,3" divisor="1" kernelMatrix="0 1 0 1 1 1 0 1 0" in="alpha-erode" result="alpha-round"></feConvolveMatrix><feMorphology operator="dilate" radius="3.5" in="alpha-round" result="dilate-shadow"></feMorphology><feGaussianBlur in="dilate-shadow" stdDeviation="1.5" result="shadow"></feGaussianBlur><feFlood flood-color="#fff" result="flood-sticker"></feFlood><feComposite operator="in" in="flood-sticker" in2="alpha-round" result="comp-sticker"></feComposite><feMorphology operator="dilate" radius="3" in="comp-sticker" result="morph-sticker"></feMorphology><feConvolveMatrix order="3,3" divisor="1" kernelMatrix="0 1 0 1 1 1 0 1 0" in="morph-sticker" result="sticker"></feConvolveMatrix><feMerge><feMergeNode in="shadow"></feMergeNode><feMergeNode in="sticker"></feMergeNode><feMergeNode in="SourceGraphic"></feMergeNode></feMerge></filter></defs><g filter="url(#editing-sticker)"><g transform="translate(94.11998687684536, 100.19999885559082)"><path d="M29.30-33.26L29.30-33.26L29.30-33.26Q30.38-35.42 30.38-37.44L30.38-37.44L30.38-37.44Q30.38-39.46 30.17-40.57L30.17-40.57L30.17-40.57Q29.95-41.69 29.45-42.55L29.45-42.55L29.45-42.55Q28.37-44.42 26.21-44.42L26.21-44.42L26.21-44.42Q23.54-44.42 21.38-42.48L21.38-42.48L21.38-42.48Q19.08-40.46 19.08-37.30L19.08-37.30L19.08-37.30Q19.08-35.28 20.48-33.73L20.48-33.73L20.48-33.73Q21.89-32.18 24.05-30.74L24.05-30.74L24.05-30.74Q26.21-29.30 28.66-27.86L28.66-27.86L28.66-27.86Q31.10-26.42 33.26-24.70L33.26-24.70L33.26-24.70Q38.23-20.74 38.23-15.41L38.23-15.41L38.23-15.41Q38.23-11.81 36.32-8.75L36.32-8.75L36.32-8.75Q34.42-5.69 31.25-3.46L31.25-3.46L31.25-3.46Q24.34 1.44 15.19 1.44L15.19 1.44L15.19 1.44Q7.78 1.44 3.96-0.97L3.96-0.97L3.96-0.97Q0.14-3.38 0.14-7.06L0.14-7.06L0.14-7.06Q0.14-13.61 5.26-15.26L5.26-15.26L5.26-15.26Q6.70-15.77 8.89-15.77L8.89-15.77L8.89-15.77Q11.09-15.77 13.61-14.83L13.61-14.83L13.61-14.83Q12.46-11.88 12.46-9.22L12.46-9.22L12.46-9.22Q12.46-3.46 16.56-3.46L16.56-3.46L16.56-3.46Q19.22-3.46 21.42-5.40L21.42-5.40L21.42-5.40Q23.62-7.34 23.62-9.54L23.62-9.54L23.62-9.54Q23.62-11.74 22.21-13.32L22.21-13.32L22.21-13.32Q20.81-14.90 18.72-16.16L18.72-16.16L18.72-16.16Q16.63-17.42 14.22-18.65L14.22-18.65L14.22-18.65Q11.81-19.87 9.72-21.60L9.72-21.60L9.72-21.60Q4.82-25.56 4.82-31.90L4.82-31.90L4.82-31.90Q4.82-36.00 6.84-39.20L6.84-39.20L6.84-39.20Q8.86-42.41 12.10-44.57L12.10-44.57L12.10-44.57Q18.58-48.96 26.53-48.96L26.53-48.96L26.53-48.96Q34.49-48.96 38.34-46.58L38.34-46.58L38.34-46.58Q42.19-44.21 42.19-40.18L42.19-40.18L42.19-40.18Q42.19-36.65 39.46-34.42L39.46-34.42L39.46-34.42Q37.08-32.54 34.20-32.54L34.20-32.54L34.20-32.54Q31.32-32.54 29.30-33.26ZM44.86-7.20L44.86-7.20L44.86-7.20Q44.86-9.14 45.86-14.04L45.86-14.04L49.68-33.48L45.43-33.48L45.72-35.64L45.72-35.64Q54.36-38.23 62.71-44.57L62.71-44.57L66.17-44.57L64.44-36.72L70.06-36.72L69.41-33.48L63.86-33.48L60.19-14.04L60.19-14.04Q59.26-9.58 59.26-8.06L59.26-8.06L59.26-8.06Q59.26-4.61 62.28-3.89L62.28-3.89L62.28-3.89Q61.56-1.44 58.97 0L58.97 0L58.97 0Q56.38 1.44 52.70 1.44L52.70 1.44L52.70 1.44Q49.03 1.44 46.94-0.86L46.94-0.86L46.94-0.86Q44.86-3.17 44.86-7.20ZM98.57-12.17L98.57-12.17L98.57-12.17Q100.37-10.94 100.37-8.24L100.37-8.24L100.37-8.24Q100.37-5.54 99.00-3.82L99.00-3.82L99.00-3.82Q97.63-2.09 95.40-0.94L95.40-0.94L95.40-0.94Q90.79 1.44 85.82 1.44L85.82 1.44L85.82 1.44Q80.86 1.44 77.94 0.36L77.94 0.36L77.94 0.36Q75.02-0.72 73.08-2.74L73.08-2.74L73.08-2.74Q69.26-6.55 69.26-13.54L69.26-13.54L69.26-13.54Q69.26-24.41 75.17-31.03L75.17-31.03L75.17-31.03Q81.50-38.16 92.52-38.16L92.52-38.16L92.52-38.16Q99.36-38.16 102.74-35.28L102.74-35.28L102.74-35.28Q105.26-33.12 105.26-29.59L105.26-29.59L105.26-29.59Q105.26-16.92 83.38-16.92L83.38-16.92L83.38-16.92Q83.09-15.05 83.09-13.46L83.09-13.46L83.09-13.46Q83.09-10.15 84.56-8.89L84.56-8.89L84.56-8.89Q86.04-7.63 88.78-7.63L88.78-7.63L88.78-7.63Q91.51-7.63 94.43-8.89L94.43-8.89L94.43-8.89Q97.34-10.15 98.57-12.17ZM83.88-20.02L83.88-20.02L83.88-20.02Q88.99-20.02 91.94-23.18L91.94-23.18L91.94-23.18Q94.90-26.21 94.90-31.03L94.90-31.03L94.90-31.03Q94.90-32.69 94.28-33.59L94.28-33.59L94.28-33.59Q93.67-34.49 92.45-34.49L92.45-34.49L92.45-34.49Q91.22-34.49 90.18-34.02L90.18-34.02L90.18-34.02Q89.14-33.55 88.06-31.97L88.06-31.97L88.06-31.97Q85.39-28.37 83.88-20.02ZM110.84-2.16L110.84-2.16L110.84-2.16Q109.15-4.03 108.40-6.98L108.40-6.98L108.40-6.98Q107.64-9.94 107.64-14.76L107.64-14.76L107.64-14.76Q107.64-19.58 109.30-23.98L109.30-23.98L109.30-23.98Q110.95-28.37 113.98-31.54L113.98-31.54L113.98-31.54Q120.17-38.16 130.39-38.16L130.39-38.16L130.39-38.16Q134.06-38.16 136.73-36.94L136.73-36.94L149.04-38.16L143.71-10.08L143.71-10.08Q143.50-9.22 143.50-7.63L143.50-7.63L143.50-7.63Q143.50-6.05 144.47-5.04L144.47-5.04L144.47-5.04Q145.44-4.03 146.88-3.89L146.88-3.89L146.88-3.89Q146.16-1.44 143.53 0L143.53 0L143.53 0Q140.90 1.44 137.95 1.44L137.95 1.44L137.95 1.44Q135.00 1.44 133.02 0.32L133.02 0.32L133.02 0.32Q131.04-0.79 130.46-2.66L130.46-2.66L130.46-2.66Q129.31-0.86 126.86 0.29L126.86 0.29L126.86 0.29Q124.42 1.44 121.14 1.44L121.14 1.44L121.14 1.44Q117.86 1.44 115.20 0.58L115.20 0.58L115.20 0.58Q112.54-0.29 110.84-2.16ZM126.04-31.39L126.04-31.39L126.04-31.39Q125.21-30.10 124.49-27.90L124.49-27.90L124.49-27.90Q123.77-25.70 122.58-19.84L122.58-19.84L122.58-19.84Q121.39-13.97 121.39-9.79L121.39-9.79L121.39-9.79Q121.39-5.62 122.04-4.39L122.04-4.39L122.04-4.39Q122.69-3.17 123.84-3.17L123.84-3.17L123.84-3.17Q126.14-3.17 127.84-5.36L127.84-5.36L127.84-5.36Q129.53-7.56 130.18-11.45L130.18-11.45L133.99-32.54L133.99-32.54Q132.48-33.84 130.72-33.84L130.72-33.84L130.72-33.84Q128.95-33.84 127.91-33.26L127.91-33.26L127.91-33.26Q126.86-32.69 126.04-31.39ZM204.77 1.44L204.77 1.44L204.77 1.44Q196.06 1.44 196.06-5.33L196.06-5.33L196.06-5.33Q196.06-8.28 197.32-14.00L197.32-14.00L197.32-14.00Q198.58-19.73 199.01-22.03L199.01-22.03L199.01-22.03Q200.02-27.29 200.02-28.94L200.02-28.94L200.02-28.94Q200.02-32.62 197.28-32.62L197.28-32.62L197.28-32.62Q195.48-32.62 193.75-30.13L193.75-30.13L193.75-30.13Q192.02-27.65 191.23-22.68L191.23-22.68L186.77 0L172.73 1.44L176.62-18.14L176.62-18.14Q177.26-21.38 177.84-25.06L177.84-25.06L177.84-25.06Q178.42-28.73 178.42-29.30L178.42-29.30L178.42-29.30Q178.42-32.62 175.97-32.62L175.97-32.62L175.97-32.62Q174.31-32.62 172.51-30.17L172.51-30.17L172.51-30.17Q170.71-27.72 169.70-22.68L169.70-22.68L165.31 0L151.13 1.44L158.69-36.72L170.42-38.16L169.20-30.89L169.20-30.89Q171.07-34.78 174.53-36.47L174.53-36.47L174.53-36.47Q177.98-38.16 183.38-38.16L183.38-38.16L183.38-38.16Q186.48-38.16 188.50-36.65L188.50-36.65L188.50-36.65Q190.51-35.14 191.16-32.69L191.16-32.69L191.16-32.69Q192.38-35.21 195.52-36.68L195.52-36.68L195.52-36.68Q198.65-38.16 202.50-38.16L202.50-38.16L202.50-38.16Q206.35-38.16 208.26-37.33L208.26-37.33L208.26-37.33Q210.17-36.50 211.32-35.14L211.32-35.14L211.32-35.14Q213.26-32.62 213.26-28.01L213.26-28.01L213.26-28.01Q213.26-23.47 211.32-14.04L211.32-14.04L211.32-14.04Q210.31-9.43 210.31-7.74L210.31-7.74L210.31-7.74Q210.31-6.05 211.28-5.04L211.28-5.04L211.28-5.04Q212.26-4.03 213.70-3.89L213.70-3.89L213.70-3.89Q212.98-1.44 210.49 0L210.49 0L210.49 0Q208.01 1.44 204.77 1.44ZM265.97-29.88L265.97-29.88L265.97-29.88Q265.97 0.79 232.70 0.79L232.70 0.79L232.70 0.79Q227.38 0.79 218.59-0.50L218.59-0.50L226.66-43.06L226.66-43.06Q227.23-45.94 227.59-47.59L227.59-47.59L227.59-47.59Q238.54-48.38 243.40-48.38L243.40-48.38L243.40-48.38Q248.26-48.38 252.72-47.38L252.72-47.38L252.72-47.38Q257.18-46.37 260.14-44.14L260.14-44.14L260.14-44.14Q265.97-39.74 265.97-29.88ZM251.14-32.54L251.14-32.54L251.14-32.54Q251.14-43.27 243.43-43.27L243.43-43.27L242.71-43.27L242.71-43.27Q242.35-43.27 241.99-43.20L241.99-43.20L234.58-4.54L234.58-4.54Q234.86-4.39 235.15-4.39L235.15-4.39L235.73-4.39L235.73-4.39Q238.39-4.39 241.16-6.05L241.16-6.05L241.16-6.05Q243.94-7.70 246.10-11.09L246.10-11.09L246.10-11.09Q251.14-18.94 251.14-32.54ZM268.92-0.36L268.92-0.36L277.99-47.52L277.99-47.52Q286.49-48.24 291.96-48.24L291.96-48.24L291.96-48.24Q297.43-48.24 300.96-47.77L300.96-47.77L300.96-47.77Q304.49-47.30 306.86-46.08L306.86-46.08L306.86-46.08Q311.62-43.78 311.62-37.44L311.62-37.44L311.62-37.44Q311.62-33.77 308.45-30.67L308.45-30.67L308.45-30.67Q305.50-27.86 302.26-27.22L302.26-27.22L302.26-27.22Q305.71-26.64 308.16-24.05L308.16-24.05L308.16-24.05Q310.75-21.31 310.75-17.06L310.75-17.06L310.75-17.06Q310.75-8.86 304.63-4.07L304.63-4.07L304.63-4.07Q298.51 0.72 286.49 0.72L286.49 0.72L286.49 0.72Q278.21 0.72 268.92-0.36ZM288.50-23.18L284.90-4.54L284.90-4.54Q285.55-4.46 285.70-4.46L285.70-4.46L286.34-4.46L286.34-4.46Q292.25-4.46 294.77-8.35L294.77-8.35L294.77-8.35Q296.64-11.38 296.64-16.92L296.64-16.92L296.64-16.92Q296.64-19.87 294.73-21.46L294.73-21.46L294.73-21.46Q292.82-23.04 288.50-23.18L288.50-23.18ZM299.45-37.37L299.45-37.37L299.45-37.37Q299.45-43.34 293.69-43.34L293.69-43.34L293.04-43.34L293.04-43.34Q292.75-43.34 292.32-43.27L292.32-43.27L289.44-28.08L290.16-28.08L290.16-28.08Q299.45-28.30 299.45-37.37Z" fill="url(#editing-sticker-gradient)" stroke="#000" stroke-width="2.5"></path></g></g><style>text {
  font-size: 64px;
  font-family: Arial Black;
  dominant-baseline: central;
  text-anchor: middle;
}</style></svg>