<svg width="399.91249999999997px" height="121.39999999999999px" xmlns="http://www.w3.org/2000/svg" viewBox="50.04375000000002 14.300000000000004 399.91249999999997 121.39999999999999" style="background: rgba(0, 0, 0, 0);" preserveAspectRatio="xMidYMid"><defs><linearGradient id="editing-sticker-gradient" x1="0.5" y1="0.2" x2="0.5" y2="0.8"><stop offset="0" stop-color="#fd9"></stop><stop offset="1" stop-color="#9df"></stop></linearGradient><filter id="editing-sticker" x="-100%" y="-100%" width="300%" height="300%"><feMorphology operator="erode" radius="1" in="SourceAlpha" result="alpha-erode"></feMorphology><feConvolveMatrix order="3,3" divisor="1" kernelMatrix="0 1 0 1 1 1 0 1 0" in="alpha-erode" result="alpha-round"></feConvolveMatrix><feMorphology operator="dilate" radius="3.5" in="alpha-round" result="dilate-shadow"></feMorphology><feGaussianBlur in="dilate-shadow" stdDeviation="1.5" result="shadow"></feGaussianBlur><feFlood flood-color="#fff" result="flood-sticker"></feFlood><feComposite operator="in" in="flood-sticker" in2="alpha-round" result="comp-sticker"></feComposite><feMorphology operator="dilate" radius="3" in="comp-sticker" result="morph-sticker"></feMorphology><feConvolveMatrix order="3,3" divisor="1" kernelMatrix="0 1 0 1 1 1 0 1 0" in="morph-sticker" result="sticker"></feConvolveMatrix><feMerge><feMergeNode in="shadow"></feMergeNode><feMergeNode in="sticker"></feMergeNode><feMergeNode in="SourceGraphic"></feMergeNode></feMerge></filter></defs><g filter="url(#editing-sticker)"><g transform="translate(111.43999969959259, 97.39999961853027)"><path d="M26.05-29.57L26.05-29.57L26.05-29.57Q27.01-31.49 27.01-33.28L27.01-33.28L27.01-33.28Q27.01-35.07 26.82-36.06L26.82-36.06L26.82-36.06Q26.62-37.06 26.18-37.82L26.18-37.82L26.18-37.82Q25.22-39.49 23.30-39.49L23.30-39.49L23.30-39.49Q20.93-39.49 19.01-37.76L19.01-37.76L19.01-37.76Q16.96-35.97 16.96-33.15L16.96-33.15L16.96-33.15Q16.96-31.36 18.21-29.98L18.21-29.98L18.21-29.98Q19.46-28.61 21.38-27.33L21.38-27.33L21.38-27.33Q23.30-26.05 25.47-24.77L25.47-24.77L25.47-24.77Q27.65-23.49 29.57-21.95L29.57-21.95L29.57-21.95Q33.98-18.43 33.98-13.70L33.98-13.70L33.98-13.70Q33.98-10.50 32.29-7.78L32.29-7.78L32.29-7.78Q30.59-5.06 27.78-3.07L27.78-3.07L27.78-3.07Q21.63 1.28 13.50 1.28L13.50 1.28L13.50 1.28Q6.91 1.28 3.52-0.86L3.52-0.86L3.52-0.86Q0.13-3.01 0.13-6.27L0.13-6.27L0.13-6.27Q0.13-12.10 4.67-13.57L4.67-13.57L4.67-13.57Q5.95-14.02 7.90-14.02L7.90-14.02L7.90-14.02Q9.86-14.02 12.10-13.18L12.10-13.18L12.10-13.18Q11.07-10.56 11.07-8.19L11.07-8.19L11.07-8.19Q11.07-3.07 14.72-3.07L14.72-3.07L14.72-3.07Q17.09-3.07 19.04-4.80L19.04-4.80L19.04-4.80Q20.99-6.53 20.99-8.48L20.99-8.48L20.99-8.48Q20.99-10.43 19.74-11.84L19.74-11.84L19.74-11.84Q18.50-13.25 16.64-14.37L16.64-14.37L16.64-14.37Q14.78-15.49 12.64-16.58L12.64-16.58L12.64-16.58Q10.50-17.66 8.64-19.20L8.64-19.20L8.64-19.20Q4.29-22.72 4.29-28.35L4.29-28.35L4.29-28.35Q4.29-32 6.08-34.85L6.08-34.85L6.08-34.85Q7.87-37.70 10.75-39.62L10.75-39.62L10.75-39.62Q16.51-43.52 23.58-43.52L23.58-43.52L23.58-43.52Q30.66-43.52 34.08-41.41L34.08-41.41L34.08-41.41Q37.50-39.30 37.50-35.71L37.50-35.71L37.50-35.71Q37.50-32.58 35.07-30.59L35.07-30.59L35.07-30.59Q32.96-28.93 30.40-28.93L30.40-28.93L30.40-28.93Q27.84-28.93 26.05-29.57ZM39.87-6.40L39.87-6.40L39.87-6.40Q39.87-8.13 40.77-12.48L40.77-12.48L44.16-29.76L40.38-29.76L40.64-31.68L40.64-31.68Q48.32-33.98 55.74-39.62L55.74-39.62L58.82-39.62L57.28-32.64L62.27-32.64L61.70-29.76L56.77-29.76L53.50-12.48L53.50-12.48Q52.67-8.51 52.67-7.17L52.67-7.17L52.67-7.17Q52.67-4.10 55.36-3.46L55.36-3.46L55.36-3.46Q54.72-1.28 52.42 0L52.42 0L52.42 0Q50.11 1.28 46.85 1.28L46.85 1.28L46.85 1.28Q43.58 1.28 41.73-0.77L41.73-0.77L41.73-0.77Q39.87-2.82 39.87-6.40ZM87.62-10.82L87.62-10.82L87.62-10.82Q89.22-9.73 89.22-7.33L89.22-7.33L89.22-7.33Q89.22-4.93 88-3.39L88-3.39L88-3.39Q86.78-1.86 84.80-0.83L84.80-0.83L84.80-0.83Q80.70 1.28 76.29 1.28L76.29 1.28L76.29 1.28Q71.87 1.28 69.28 0.32L69.28 0.32L69.28 0.32Q66.69-0.64 64.96-2.43L64.96-2.43L64.96-2.43Q61.57-5.82 61.57-12.03L61.57-12.03L61.57-12.03Q61.57-21.70 66.82-27.58L66.82-27.58L66.82-27.58Q72.45-33.92 82.24-33.92L82.24-33.92L82.24-33.92Q88.32-33.92 91.33-31.36L91.33-31.36L91.33-31.36Q93.57-29.44 93.57-26.30L93.57-26.30L93.57-26.30Q93.57-15.04 74.11-15.04L74.11-15.04L74.11-15.04Q73.86-13.38 73.86-11.97L73.86-11.97L73.86-11.97Q73.86-9.02 75.17-7.90L75.17-7.90L75.17-7.90Q76.48-6.78 78.91-6.78L78.91-6.78L78.91-6.78Q81.34-6.78 83.94-7.90L83.94-7.90L83.94-7.90Q86.53-9.02 87.62-10.82ZM74.56-17.79L74.56-17.79L74.56-17.79Q79.10-17.79 81.73-20.61L81.73-20.61L81.73-20.61Q84.35-23.30 84.35-27.58L84.35-27.58L84.35-27.58Q84.35-29.06 83.81-29.86L83.81-29.86L83.81-29.86Q83.26-30.66 82.18-30.66L82.18-30.66L82.18-30.66Q81.09-30.66 80.16-30.24L80.16-30.24L80.16-30.24Q79.23-29.82 78.27-28.42L78.27-28.42L78.27-28.42Q75.90-25.22 74.56-17.79ZM98.53-1.92L98.53-1.92L98.53-1.92Q97.02-3.58 96.35-6.21L96.35-6.21L96.35-6.21Q95.68-8.83 95.68-13.12L95.68-13.12L95.68-13.12Q95.68-17.41 97.15-21.31L97.15-21.31L97.15-21.31Q98.62-25.22 101.31-28.03L101.31-28.03L101.31-28.03Q106.82-33.92 115.90-33.92L115.90-33.92L115.90-33.92Q119.17-33.92 121.54-32.83L121.54-32.83L132.48-33.92L127.74-8.96L127.74-8.96Q127.55-8.19 127.55-6.78L127.55-6.78L127.55-6.78Q127.55-5.38 128.42-4.48L128.42-4.48L128.42-4.48Q129.28-3.58 130.56-3.46L130.56-3.46L130.56-3.46Q129.92-1.28 127.58 0L127.58 0L127.58 0Q125.25 1.28 122.62 1.28L122.62 1.28L122.62 1.28Q120 1.28 118.24 0.29L118.24 0.29L118.24 0.29Q116.48-0.70 115.97-2.37L115.97-2.37L115.97-2.37Q114.94-0.77 112.77 0.26L112.77 0.26L112.77 0.26Q110.59 1.28 107.68 1.28L107.68 1.28L107.68 1.28Q104.77 1.28 102.40 0.51L102.40 0.51L102.40 0.51Q100.03-0.26 98.53-1.92ZM112.03-27.90L112.03-27.90L112.03-27.90Q111.30-26.75 110.66-24.80L110.66-24.80L110.66-24.80Q110.02-22.85 108.96-17.63L108.96-17.63L108.96-17.63Q107.90-12.42 107.90-8.70L107.90-8.70L107.90-8.70Q107.90-4.99 108.48-3.90L108.48-3.90L108.48-3.90Q109.06-2.82 110.08-2.82L110.08-2.82L110.08-2.82Q112.13-2.82 113.63-4.77L113.63-4.77L113.63-4.77Q115.14-6.72 115.71-10.18L115.71-10.18L119.10-28.93L119.10-28.93Q117.76-30.08 116.19-30.08L116.19-30.08L116.19-30.08Q114.62-30.08 113.70-29.57L113.70-29.57L113.70-29.57Q112.77-29.06 112.03-27.90ZM182.02 1.28L182.02 1.28L182.02 1.28Q174.27 1.28 174.27-4.74L174.27-4.74L174.27-4.74Q174.27-7.36 175.39-12.45L175.39-12.45L175.39-12.45Q176.51-17.54 176.90-19.58L176.90-19.58L176.90-19.58Q177.79-24.26 177.79-25.73L177.79-25.73L177.79-25.73Q177.79-28.99 175.36-28.99L175.36-28.99L175.36-28.99Q173.76-28.99 172.22-26.78L172.22-26.78L172.22-26.78Q170.69-24.58 169.98-20.16L169.98-20.16L166.02 0L153.54 1.28L156.99-16.13L156.99-16.13Q157.57-19.01 158.08-22.27L158.08-22.27L158.08-22.27Q158.59-25.54 158.59-26.05L158.59-26.05L158.59-26.05Q158.59-28.99 156.42-28.99L156.42-28.99L156.42-28.99Q154.94-28.99 153.34-26.82L153.34-26.82L153.34-26.82Q151.74-24.64 150.85-20.16L150.85-20.16L146.94 0L134.34 1.28L141.06-32.64L151.49-33.92L150.40-27.46L150.40-27.46Q152.06-30.91 155.14-32.42L155.14-32.42L155.14-32.42Q158.21-33.92 163.01-33.92L163.01-33.92L163.01-33.92Q165.76-33.92 167.55-32.58L167.55-32.58L167.55-32.58Q169.34-31.23 169.92-29.06L169.92-29.06L169.92-29.06Q171.01-31.30 173.79-32.61L173.79-32.61L173.79-32.61Q176.58-33.92 180-33.92L180-33.92L180-33.92Q183.42-33.92 185.12-33.18L185.12-33.18L185.12-33.18Q186.82-32.45 187.84-31.23L187.84-31.23L187.84-31.23Q189.57-28.99 189.57-24.90L189.57-24.90L189.57-24.90Q189.57-20.86 187.84-12.48L187.84-12.48L187.84-12.48Q186.94-8.38 186.94-6.88L186.94-6.88L186.94-6.88Q186.94-5.38 187.81-4.48L187.81-4.48L187.81-4.48Q188.67-3.58 189.95-3.46L189.95-3.46L189.95-3.46Q189.31-1.28 187.10 0L187.10 0L187.10 0Q184.90 1.28 182.02 1.28ZM236.42-26.56L236.42-26.56L236.42-26.56Q236.42 0.70 206.85 0.70L206.85 0.70L206.85 0.70Q202.11 0.70 194.30-0.45L194.30-0.45L201.47-38.27L201.47-38.27Q201.98-40.83 202.30-42.30L202.30-42.30L202.30-42.30Q212.03-43.01 216.35-43.01L216.35-43.01L216.35-43.01Q220.67-43.01 224.64-42.11L224.64-42.11L224.64-42.11Q228.61-41.22 231.23-39.23L231.23-39.23L231.23-39.23Q236.42-35.33 236.42-26.56ZM223.23-28.93L223.23-28.93L223.23-28.93Q223.23-38.46 216.38-38.46L216.38-38.46L215.74-38.46L215.74-38.46Q215.42-38.46 215.10-38.40L215.10-38.40L208.51-4.03L208.51-4.03Q208.77-3.90 209.02-3.90L209.02-3.90L209.54-3.90L209.54-3.90Q211.90-3.90 214.37-5.38L214.37-5.38L214.37-5.38Q216.83-6.85 218.75-9.86L218.75-9.86L218.75-9.86Q223.23-16.83 223.23-28.93ZM239.04-0.32L239.04-0.32L247.10-42.24L247.10-42.24Q254.66-42.88 259.52-42.88L259.52-42.88L259.52-42.88Q264.38-42.88 267.52-42.46L267.52-42.46L267.52-42.46Q270.66-42.05 272.77-40.96L272.77-40.96L272.77-40.96Q276.99-38.91 276.99-33.28L276.99-33.28L276.99-33.28Q276.99-30.02 274.18-27.26L274.18-27.26L274.18-27.26Q271.55-24.77 268.67-24.19L268.67-24.19L268.67-24.19Q271.74-23.68 273.92-21.38L273.92-21.38L273.92-21.38Q276.22-18.94 276.22-15.17L276.22-15.17L276.22-15.17Q276.22-7.87 270.78-3.62L270.78-3.62L270.78-3.62Q265.34 0.64 254.66 0.64L254.66 0.64L254.66 0.64Q247.30 0.64 239.04-0.32ZM256.45-20.61L253.25-4.03L253.25-4.03Q253.82-3.97 253.95-3.97L253.95-3.97L254.53-3.97L254.53-3.97Q259.78-3.97 262.02-7.42L262.02-7.42L262.02-7.42Q263.68-10.11 263.68-15.04L263.68-15.04L263.68-15.04Q263.68-17.66 261.98-19.07L261.98-19.07L261.98-19.07Q260.29-20.48 256.45-20.61L256.45-20.61ZM266.18-33.22L266.18-33.22L266.18-33.22Q266.18-38.53 261.06-38.53L261.06-38.53L260.48-38.53L260.48-38.53Q260.22-38.53 259.84-38.46L259.84-38.46L257.28-24.96L257.92-24.96L257.92-24.96Q266.18-25.15 266.18-33.22Z" fill="url(#editing-sticker-gradient)" stroke="#000" stroke-width="2.5"></path></g></g><style>text {
  font-size: 64px;
  font-family: Arial Black;
  dominant-baseline: central;
  text-anchor: middle;
}</style></svg>